<?xml version="1.0" encoding="UTF-8" standalone="no"?>
<!-- Created with Inkscape (http://www.inkscape.org/) -->

<svg
   xmlns:dc="http://purl.org/dc/elements/1.1/"
   xmlns:cc="http://creativecommons.org/ns#"
   xmlns:rdf="http://www.w3.org/1999/02/22-rdf-syntax-ns#"
   xmlns:svg="http://www.w3.org/2000/svg"
   xmlns="http://www.w3.org/2000/svg"
   xmlns:sodipodi="http://sodipodi.sourceforge.net/DTD/sodipodi-0.dtd"
   xmlns:inkscape="http://www.inkscape.org/namespaces/inkscape"
   width="95.499649mm"
   height="95.499649mm"
   viewBox="0 0 95.499649 95.499649"
   version="1.1"
   id="svg8"
   inkscape:version="0.92.3 (2405546, 2018-03-11)"
   sodipodi:docname="stamp.svg"
   inkscape:export-filename="/home/tom/Downloads/stamp.png"
   inkscape:export-xdpi="500"
   inkscape:export-ydpi="500">
  <defs
     id="defs2" />
  <sodipodi:namedview
     id="base"
     pagecolor="#ffffff"
     bordercolor="#666666"
     borderopacity="1.0"
     inkscape:pageopacity="0.0"
     inkscape:pageshadow="2"
     inkscape:zoom="0.98994949"
     inkscape:cx="134.37961"
     inkscape:cy="32.111315"
     inkscape:document-units="mm"
     inkscape:current-layer="layer1"
     showgrid="false"
     inkscape:window-width="1853"
     inkscape:window-height="1025"
     inkscape:window-x="67"
     inkscape:window-y="27"
     inkscape:window-maximized="1" />
  <metadata
     id="metadata5">
    <rdf:RDF>
      <cc:Work
         rdf:about="">
        <dc:format>image/svg+xml</dc:format>
        <dc:type
           rdf:resource="http://purl.org/dc/dcmitype/StillImage" />
        <dc:title />
      </cc:Work>
    </rdf:RDF>
  </metadata>
  <g
     inkscape:label="Layer 1"
     inkscape:groupmode="layer"
     id="layer1"
     transform="translate(-37.294823,-11.881131)">
    <circle
       style="fill:#000000;fill-opacity:1;stroke:#000000;stroke-width:2.32994962;stroke-linejoin:round;stroke-miterlimit:4;stroke-dasharray:none;stroke-opacity:1"
       id="path920-56"
       cx="-1.2525682"
       cy="-103.85988"
       r="46.587948"
       transform="rotate(125.72804)" />
    <circle
       style="fill:none;fill-opacity:1;stroke:#ffffff;stroke-width:2;stroke-linejoin:round;stroke-miterlimit:4;stroke-dasharray:none;stroke-opacity:1"
       id="path920-5"
       cx="-1.209505"
       cy="-104.12366"
       r="41.609501"
       transform="rotate(125.72804)" />
    <circle
       style="fill:#000000;fill-opacity:1;stroke:#000000;stroke-width:1.5;stroke-linejoin:round;stroke-miterlimit:4;stroke-dasharray:none;stroke-opacity:1"
       id="path920"
       cx="-1.0130383"
       cy="-104.49777"
       r="29.992893"
       transform="rotate(125.72804)" />
    <g
       aria-label="CHANCELLOR OF PAPHOS"
       style="font-style:normal;font-variant:normal;font-weight:bold;font-stretch:normal;font-size:10.58333302px;line-height:1.25;font-family:LouisaCP;-inkscape-font-specification:'LouisaCP Bold';font-variant-ligatures:normal;font-variant-caps:normal;font-variant-numeric:normal;font-feature-settings:normal;text-align:start;letter-spacing:0px;word-spacing:0px;writing-mode:lr-tb;text-anchor:start;fill:#000000;fill-opacity:1;stroke:none;stroke-width:0.26458332"
       id="text934">
      <path
         d="m 62.27819,80.201863 q 0.59417,0.16672 1.126971,0.467098 0.532801,0.300378 1.004476,0.741718 1.407477,1.316959 1.495688,2.871524 0.08468,1.558337 -1.175787,2.905441 -1.263999,1.350876 -2.82099,1.366046 -1.560522,0.01894 -2.967999,-1.298016 -0.471675,-0.441341 -0.806756,-0.953029 -0.335081,-0.511688 -0.540871,-1.093481 l 1.090993,-1.165981 q 0.146011,0.653246 0.4184,1.148736 0.272389,0.495491 0.70633,0.901524 0.77732,0.727329 1.688636,0.645865 0.911316,-0.08146 1.730444,-0.956892 0.815597,-0.871655 0.836391,-1.786369 0.02079,-0.914713 -0.756526,-1.642042 -0.433941,-0.406033 -0.946419,-0.644933 -0.512478,-0.238899 -1.173974,-0.341228 z"
         style="font-style:normal;font-variant:normal;font-weight:bold;font-stretch:normal;font-family:sans-serif;-inkscape-font-specification:'sans-serif Bold';fill:#ffffff;stroke-width:0.26458332"
         id="path823" />
      <path
         d="m 54.857992,82.566472 -1.0228,-1.706505 2.522082,-1.511619 -1.508961,-2.517649 -2.522082,1.511618 -1.0228,-1.706505 6.617695,-3.966338 1.0228,1.706506 -2.805761,1.681642 1.508962,2.517649 2.80576,-1.681642 1.0228,1.706506 z"
         style="font-style:normal;font-variant:normal;font-weight:bold;font-stretch:normal;font-family:sans-serif;-inkscape-font-specification:'sans-serif Bold';fill:#ffffff;stroke-width:0.26458332"
         id="path825" />
      <path
         d="m 54.652418,66.640019 0.786465,3.009868 1.48405,0.119633 0.505585,1.934915 -8.187122,-0.814394 -0.599647,-2.294899 6.742222,-4.715363 0.505584,1.934915 z m -0.72389,2.891767 -0.534326,-2.04491 -2.70336,1.795969 z"
         style="font-style:normal;font-variant:normal;font-weight:bold;font-stretch:normal;font-family:sans-serif;-inkscape-font-specification:'sans-serif Bold';fill:#ffffff;stroke-width:0.26458332"
         id="path827" />
      <path
         d="m 47.631264,62.600753 0.061,-2.221249 5.366701,-2.659709 -5.289672,-0.145264 0.05178,-1.885479 7.712383,0.211796 -0.061,2.221249 -5.366702,2.659709 5.289672,0.145263 -0.05178,1.885479 z"
         style="font-style:normal;font-variant:normal;font-weight:bold;font-stretch:normal;font-family:sans-serif;-inkscape-font-specification:'sans-serif Bold';fill:#ffffff;stroke-width:0.26458332"
         id="path829" />
      <path
         d="m 57.371575,47.989947 q 0.106158,0.607918 0.06526,1.218189 -0.0409,0.610272 -0.235332,1.22627 -0.580195,1.838137 -1.94431,2.588897 -1.369044,0.749205 -3.128334,0.193898 -1.764217,-0.556863 -2.450143,-1.954703 -0.690853,-1.399396 -0.110658,-3.237534 0.194435,-0.615997 0.511299,-1.139162 0.316864,-0.523164 0.752784,-0.959979 l 1.522747,0.480644 q -0.52618,0.413744 -0.855501,0.873368 -0.329322,0.459623 -0.508202,1.026341 -0.320429,1.015165 0.146517,1.80199 0.466947,0.786826 1.610239,1.147698 1.138364,0.359316 1.972405,-0.01686 0.83404,-0.376179 1.154469,-1.391343 0.178881,-0.566718 0.1731,-1.132115 -0.0058,-0.565396 -0.199088,-1.206241 z"
         style="font-style:normal;font-variant:normal;font-weight:bold;font-stretch:normal;font-family:sans-serif;-inkscape-font-specification:'sans-serif Bold';fill:#ffffff;stroke-width:0.26458332"
         id="path831" />
      <path
         d="m 51.992528,42.547679 2.835426,-4.559437 1.276993,0.794137 -1.784762,2.869944 1.219946,0.758661 1.678331,-2.698801 1.276994,0.794138 -1.678332,2.6988 1.500797,0.933316 1.8448,-2.966486 1.276993,0.794137 -2.895463,4.65598 z"
         style="font-style:normal;font-variant:normal;font-weight:bold;font-stretch:normal;font-family:sans-serif;-inkscape-font-specification:'sans-serif Bold';fill:#ffffff;stroke-width:0.26458332"
         id="path833" />
      <path
         d="m 57.137569,35.141707 1.40992,-1.403711 4.382495,4.40188 2.4756,-2.464698 1.060987,1.06568 -3.88552,3.868409 z"
         style="font-style:normal;font-variant:normal;font-weight:bold;font-stretch:normal;font-family:sans-serif;-inkscape-font-specification:'sans-serif Bold';fill:#ffffff;stroke-width:0.26458332"
         id="path835" />
      <path
         d="m 63.401322,29.497771 1.681994,-1.062626 3.317603,5.251317 2.95332,-1.865807 0.80318,1.271325 -4.635314,2.928434 z"
         style="font-style:normal;font-variant:normal;font-weight:bold;font-stretch:normal;font-family:sans-serif;-inkscape-font-specification:'sans-serif Bold';fill:#ffffff;stroke-width:0.26458332"
         id="path837" />
      <path
         d="m 74.398565,25.499236 q -0.86696,0.27492 -1.141707,1.066806 -0.274747,0.791886 0.0939,1.9544 0.36708,1.157588 1.047958,1.646438 0.680879,0.488849 1.547838,0.21393 0.871886,-0.276482 1.146633,-1.068368 0.274748,-0.791886 -0.09233,-1.949474 -0.368642,-1.162514 -1.049521,-1.651363 -0.680878,-0.48885 -1.552764,-0.212369 z m -0.43581,-1.374328 q 1.773327,-0.562335 3.099992,0.133745 1.326666,0.69608 1.893688,2.484184 0.565459,1.783178 -0.117645,3.116572 -0.683104,1.333394 -2.456431,1.895729 -1.7684,0.560773 -3.099992,-0.133745 -1.326666,-0.69608 -1.892125,-2.479258 -0.567022,-1.788104 0.116083,-3.121498 0.68803,-1.334955 2.45643,-1.895729 z"
         style="font-style:normal;font-variant:normal;font-weight:bold;font-stretch:normal;font-family:sans-serif;-inkscape-font-specification:'sans-serif Bold';fill:#ffffff;stroke-width:0.26458332"
         id="path839" />
      <path
         d="m 84.389117,25.923631 q 0.625123,-0.01422 0.888484,-0.25281 0.268527,-0.238711 0.256426,-0.77084 -0.01198,-0.526964 -0.290968,-0.748054 -0.273818,-0.221208 -0.898941,-0.206992 l -0.836942,0.01903 0.045,1.978696 z m -0.80569,1.393271 0.06638,2.918963 -1.989028,0.04523 -0.175411,-7.713296 3.037788,-0.06908 q 1.524061,-0.03466 2.243477,0.460709 0.724581,0.495251 0.749724,1.600841 0.01739,0.764613 -0.343424,1.263872 -0.355647,0.499141 -1.094308,0.748543 0.410253,0.08371 0.738084,0.407071 0.332879,0.318076 0.678679,0.97701 l 1.129573,2.165959 -2.118186,0.04817 -0.983856,-1.895317 Q 85.225614,27.703412 84.926318,27.49829 84.632187,27.293051 84.146554,27.304095 Z"
         style="font-style:normal;font-variant:normal;font-weight:bold;font-stretch:normal;font-family:sans-serif;-inkscape-font-specification:'sans-serif Bold';fill:#ffffff;stroke-width:0.26458332"
         id="path841" />
      <path
         d="m 99.14182,26.468403 q -0.842289,-0.343146 -1.559965,0.08988 -0.717677,0.433025 -1.177805,1.562458 -0.458178,1.124647 -0.247422,1.935912 0.210756,0.811266 1.053044,1.154412 0.847075,0.345096 1.564751,-0.08793 0.717676,-0.433025 1.175855,-1.557672 0.460132,-1.129432 0.249372,-1.940698 -0.210756,-0.811265 -1.05783,-1.156361 z m 0.543964,-1.335219 q 1.722866,0.70189 2.297516,2.085488 0.57465,1.383598 -0.13309,3.120819 -0.70579,1.732435 -2.083713,2.320558 -1.377926,0.588123 -3.100789,-0.113767 -1.718078,-0.69994 -2.297516,-2.085488 -0.574652,-1.383599 0.131137,-3.116033 0.707739,-1.737221 2.085666,-2.325344 1.382712,-0.586174 3.100789,0.113767 z"
         style="font-style:normal;font-variant:normal;font-weight:bold;font-stretch:normal;font-family:sans-serif;-inkscape-font-specification:'sans-serif Bold';fill:#ffffff;stroke-width:0.26458332"
         id="path843" />
      <path
         d="m 106.34545,28.716012 4.25365,3.276369 -0.91764,1.191349 -2.67746,-2.062315 -0.87664,1.138126 2.51779,1.939334 -0.91763,1.191348 -2.5178,-1.939333 -1.99609,2.59149 -1.57619,-1.214054 z"
         style="font-style:normal;font-variant:normal;font-weight:bold;font-stretch:normal;font-family:sans-serif;-inkscape-font-specification:'sans-serif Bold';fill:#ffffff;stroke-width:0.26458332"
         id="path845" />
      <path
         d="m 116.14226,38.182012 1.74718,2.802033 q 0.77926,1.249733 0.63796,2.263505 -0.13417,1.015424 -1.16027,1.655236 -1.03048,0.642546 -2.00572,0.318885 -0.96812,-0.32201 -1.74737,-1.571743 l -0.6945,-1.113797 -2.27145,1.416336 -1.05268,-1.688236 z m -0.17074,2.451088 -1.82856,1.140178 0.58239,0.934011 q 0.30624,0.491123 0.70982,0.610961 0.40796,0.117104 0.84647,-0.15632 0.4385,-0.273424 0.5085,-0.68856 0.07,-0.415136 -0.23623,-0.906259 z"
         style="font-style:normal;font-variant:normal;font-weight:bold;font-stretch:normal;font-family:sans-serif;-inkscape-font-specification:'sans-serif Bold';fill:#ffffff;stroke-width:0.26458332"
         id="path847" />
      <path
         d="m 115.81439,52.1546 -0.94229,-2.96478 -1.48827,-0.04211 -0.60576,-1.90593 8.21845,0.386524 0.71845,2.260522 -6.48726,5.060398 -0.60576,-1.90593 z m 0.57217,-2.925569 0.64019,2.014278 2.60607,-1.934443 z"
         style="font-style:normal;font-variant:normal;font-weight:bold;font-stretch:normal;font-family:sans-serif;-inkscape-font-specification:'sans-serif Bold';fill:#ffffff;stroke-width:0.26458332"
         id="path849" />
      <path
         d="m 122.97164,55.680808 0.14304,3.299025 q 0.0638,1.471396 -0.55785,2.284569 -0.61626,0.818113 -1.82436,0.870494 -1.21325,0.0526 -1.90318,-0.708873 -0.68454,-0.756539 -0.74833,-2.227935 l -0.0569,-1.311349 -2.67433,0.115956 -0.0862,-1.987676 z m -1.35424,2.05013 -2.15288,0.09335 0.0477,1.099675 q 0.0251,0.578233 0.31751,0.881075 0.29761,0.302619 0.81389,0.280234 0.51628,-0.02239 0.78142,-0.349404 0.26513,-0.327018 0.24006,-0.905251 z"
         style="font-style:normal;font-variant:normal;font-weight:bold;font-stretch:normal;font-family:sans-serif;-inkscape-font-specification:'sans-serif Bold';fill:#ffffff;stroke-width:0.26458332"
         id="path851" />
      <path
         d="m 122.91171,65.583167 -0.46132,1.93532 -2.86025,-0.681794 -0.6806,2.855226 2.86026,0.681794 -0.46132,1.93532 -7.50502,-1.788961 0.46131,-1.93532 3.18197,0.758481 0.6806,-2.855225 -3.18197,-0.758482 0.46132,-1.93532 z"
         style="font-style:normal;font-variant:normal;font-weight:bold;font-stretch:normal;font-family:sans-serif;-inkscape-font-specification:'sans-serif Bold';fill:#ffffff;stroke-width:0.26458332"
         id="path853" />
      <path
         d="m 116.7976,78.667983 q 0.46186,-0.783512 0.13767,-1.556476 -0.32419,-0.772964 -1.3748,-1.392269 -1.04617,-0.61668 -1.87944,-0.526001 -0.83328,0.09068 -1.29513,0.874191 -0.46448,0.787964 -0.1403,1.560928 0.32419,0.772964 1.37036,1.389644 1.05061,0.619305 1.88389,0.528625 0.83327,-0.09068 1.29775,-0.878642 z m 1.24205,0.732144 q -0.94471,1.602637 -2.3971,1.970219 -1.4524,0.367581 -3.06839,-0.584993 -1.61154,-0.94995 -1.99327,-2.398691 -0.38174,-1.44874 0.56296,-3.051378 0.94208,-1.598185 2.3971,-1.970219 1.4524,-0.367581 3.06394,0.582369 1.61599,0.952574 1.99772,2.401315 0.37911,1.453192 -0.56296,3.051378 z"
         style="font-style:normal;font-variant:normal;font-weight:bold;font-stretch:normal;font-family:sans-serif;-inkscape-font-specification:'sans-serif Bold';fill:#ffffff;stroke-width:0.26458332"
         id="path855" />
      <path
         d="m 109.46383,89.052721 -1.12823,-1.180555 q 0.65589,-0.233676 1.19296,-0.5468 0.53707,-0.313124 0.92561,-0.684439 0.51556,-0.492707 0.62646,-0.870315 0.1109,-0.377608 -0.17473,-0.676483 -0.21422,-0.224156 -0.49999,-0.194083 -0.28594,0.03738 -0.80873,0.365448 l -0.73052,0.46225 q -1.10876,0.702219 -1.86521,0.696039 -0.75645,-0.0062 -1.42767,-0.708534 -0.88188,-0.922775 -0.76471,-1.899664 0.11701,-0.969581 1.24152,-2.044254 0.53051,-0.506989 1.16114,-0.916678 0.63064,-0.409689 1.35411,-0.722243 l 1.16036,1.214178 q -0.80558,0.226628 -1.44171,0.555782 -0.63628,0.336461 -1.09954,0.779183 -0.47073,0.449863 -0.57108,0.845985 -0.10035,0.396122 0.17813,0.687525 0.24993,0.261515 0.55745,0.239245 0.30379,-0.0187 0.91899,-0.392188 l 0.67447,-0.408696 q 1.00823,-0.620432 1.77165,-0.599474 0.75969,0.02453 1.39521,0.689524 0.79619,0.833112 0.68665,1.795554 -0.10953,0.962441 -1.11823,1.926433 -0.45952,0.439152 -1.01303,0.832314 -0.54994,0.396898 -1.20133,0.754946 z"
         style="font-style:normal;font-variant:normal;font-weight:bold;font-stretch:normal;font-family:sans-serif;-inkscape-font-specification:'sans-serif Bold';fill:#ffffff;stroke-width:0.26458332"
         id="path857" />
    </g>
    <circle
       style="fill:none;fill-opacity:1;stroke:#ffffff;stroke-width:2;stroke-linejoin:round;stroke-miterlimit:4;stroke-dasharray:none;stroke-opacity:1"
       id="path920-5-3"
       cx="-0.85960275"
       cy="-104.60814"
       r="26.120693"
       transform="rotate(125.72804)" />
    <g
       aria-label="P"
       style="font-style:normal;font-variant:normal;font-weight:bold;font-stretch:normal;font-size:42.94459915px;line-height:1.25;font-family:LouisaCP;-inkscape-font-specification:'LouisaCP Bold';font-variant-ligatures:normal;font-variant-caps:normal;font-variant-numeric:normal;font-feature-settings:normal;text-align:start;letter-spacing:0px;word-spacing:0px;writing-mode:lr-tb;text-anchor:start;fill:#000000;fill-opacity:1;stroke:none;stroke-width:1.07361495"
       id="text1023">
      <path
         d="m 84.339576,49.94783 c -2.963177,0 -5.711632,2.963178 -5.754576,3.049067 l 0.343556,0.257667 c 0.858892,-0.987725 3.220845,-2.877288 5.41102,-2.877288 0.944781,0 1.58895,0.858892 1.58895,1.58895 0,1.631895 -6.742302,9.490757 -11.337374,9.490757 -1.374227,0 -2.533731,-1.03067 -2.533731,-2.361953 0,-6.355801 8.545975,-12.153322 16.490726,-12.153322 2.920232,0 5.282185,0.773003 6.871136,1.889563 -11.29443,5.969299 -18.938569,24.478421 -26.410929,24.478421 -2.276064,0 -4.165626,-2.06134 -3.73618,-3.521457 0.214723,0.601225 0.987726,1.030671 1.58895,1.030671 1.288338,0 2.791399,-1.331283 2.791399,-2.920233 0,-1.245394 -0.987726,-2.319009 -2.233119,-2.319009 -2.061341,0 -3.435568,1.588951 -3.435568,4.079737 0,2.14723 2.662565,4.079737 5.024518,4.079737 6.914081,0 13.012214,-5.625742 16.963117,-10.435537 0.901836,1.546005 2.748454,2.06134 4.509183,2.06134 4.938629,0 9.920206,-4.852739 9.920206,-8.588919 0,-3.177901 -1.202453,-5.625743 -3.13496,-7.300582 1.58895,-1.288338 3.26379,-2.061341 5.11041,-2.061341 0.73006,0 0.98772,0.128834 0.98772,0.343557 0,0.171778 -0.0859,0.386501 -0.0859,0.644169 0,0.987726 0.81595,1.58895 1.71779,1.58895 0.42944,0 0.81595,-0.343557 0.81595,-0.773003 0,-1.073615 -1.80368,-2.233119 -3.43557,-2.233119 -2.23312,0 -4.380352,0.55828 -6.398748,1.546006 -2.104285,-1.374228 -4.76685,-2.018397 -7.429415,-2.018397 -8.159474,0 -16.920172,5.926355 -16.920172,12.582768 0,1.58895 1.417171,2.791399 2.963177,2.791399 6.527579,0 11.76682,-5.496909 11.76682,-9.70548 0,-1.159504 -0.815947,-2.233119 -2.018396,-2.233119 z m 12.368044,0 c 0.773003,0.815948 1.159505,1.717784 1.159505,2.576676 0,3.478513 -4.552128,12.153322 -9.276034,12.153322 -0.687113,0 -1.803673,-0.858892 -2.14723,-1.932507 3.73618,-4.680961 6.871136,-9.791369 10.263759,-12.797491 z"
         style="fill:#ffffff;stroke-width:1.07361495"
         id="path860" />
    </g>
    <path
       inkscape:connector-curvature="0"
       d="m 85.611605,88.601618 1.721465,3.551822 3.910381,0.540179 -2.845953,2.735214 0.694587,3.885498 -3.48048,-1.861794 -3.480941,1.861794 0.695067,-3.885498 -2.845971,-2.735214 3.910381,-0.540179 z"
       id="path2"
       style="fill:#ffffff;fill-opacity:1;stroke-width:0.46932042" />
  </g>
</svg>
